# xmcd
#
# Track frame offsets: 
#        225
#        11997
#        23545
#        33625
#        43752
#        55897
#        69685
#        80700
#        99177
#        114967
#        124365
#        135887
#        148912
#        158447
#        172422
#        184072
#        203105
#        216937
#        233640
#        245017
#        261632
#        275355
#        294595
#        307780
#
# Disc length: 4257 seconds
#
# Revision: 2
# Processed by: cddbd v1.5.2PL0 Copyright (c) Steve Scherf et al.
# Submitted via: ExactAudioCopy v1.0b2
#
DISCID=65109e18
DTITLE=Various Artist - Country Music Hall Of Fame Vol. 1
DYEAR=1988
DGENRE=Country
TTITLE0=Jack Greene - There Goes My Everything
TTITLE1=Wynn Stewart - It's Such A Pretty World Today
TTITLE2=Loretta Lynn - Fist City
TTITLE3=Merle Haggard - Mama Tried
TTITLE4=Tammy Wynette - Stand By Your Man
TTITLE5=Merle Haggard - Okie From Muskogee
TTITLE6=Conway Twitty - Hello Darlin'
TTITLE7=Johnny Cash - Sunday Mornin' Comin' Down
TTITLE8=Jeanne Pruett - Satin Sheets
TTITLE9=Charley Pride - Kiss An Angel Good Morning
TTITLE10=Donna F - The Happiest Girl In The Whole U.S.A.
TTITLE11=Cal Smith - The Lord Knows I'm Drinking
TTITLE12=Tom T. Hall - I Love
TTITLE13=George Jones - The Grand Tour
TTITLE14=Freddy Fender - Before The Next Teardrop Falls
TTITLE15=Marty Robbins - El Paso City
TTITLE16=Waylon Jennings and Willie Nelson - Good Hearted Woman
TTITLE17=Kenny Rogers - Lucille
TTITLE18=Crystal Gayle - Don't It Make My Brown Eyes Blue
TTITLE19=Ronnie Milsap - It Was Almost Like A Song
TTITLE20=Emmylou Harris - Two More Bottles Of Wine
TTITLE21=Waylon Jennings - I've Always Been Crazy
TTITLE22=Dolly Parton - Here You Come Again
TTITLE23=John Conlee - Back Side Of Thirty
EXTD=
EXTT0=Jack Greene\n
EXTT1=
EXTT2=
EXTT3=
EXTT4=
EXTT5=
EXTT6=
EXTT7=
EXTT8=
EXTT9=
EXTT10=
EXTT11=
EXTT12=
EXTT13=
EXTT14=
EXTT15=
EXTT16=
EXTT17=
EXTT18=
EXTT19=
EXTT20=
EXTT21=
EXTT22=
EXTT23=
PLAYORDER=
